<?xml version="1.0" encoding="UTF-8"?>
<svg id="_レイヤー_1" data-name="レイヤー_1" xmlns="http://www.w3.org/2000/svg" viewBox="0 0 228.51 76">
  <defs>
    <style>
      .cls-1 {
        fill: #1ec2e0;
      }
    </style>
  </defs>
  <path class="cls-1" d="M39.94,50.86c-.05.33-.12.59-.21.78-.09.19-.12.45-.07.78-.05.09-.09.21-.14.35-.05.14-.12.26-.21.35-.42.42-.79.88-1.1,1.38-.31.49-.6.95-.88,1.38-.09.19-.2.37-.32.53-.12.17-.22.32-.32.46-.33,0-.54-.02-.64-.07-.24-.19-.46-.35-.67-.49-.21-.14-.44-.31-.67-.49-.33-.28-.55-.39-.67-.32-.12.07-.32-.01-.6-.25-.33-.09-.75-.23-1.27-.42-.52-.19-.92-.26-1.2-.21-.09.05-.22.14-.39.28-.17.14-.22.26-.18.35.09.42.12.84.07,1.24-.05.4-.07.81-.07,1.24,0,1.08-.24,2.1-.71,3.04-.19.47-.37.93-.53,1.38-.17.45-.41.86-.74,1.24-.19.19-.41.31-.67.35-.26.05-.53.12-.81.21-.28.28-.59.52-.92.71-.33.19-.73.33-1.2.42-.33.05-.65.14-.95.28-.31.14-.65.24-1.02.28-.19.09-.4.15-.64.18-.24.02-.47.03-.71.03-.19-.09-.38-.2-.57-.32-.19-.12-.38-.2-.57-.25-.61-.14-1.23-.12-1.84.07h-.42c-.24-.09-.42-.24-.57-.42-.14-.19-.33-.38-.57-.56-.33-.09-.7-.19-1.1-.28-.4-.09-.79-.24-1.17-.42-.38-.24-.77-.46-1.17-.67-.4-.21-.79-.44-1.17-.67-.33-.24-.65-.51-.95-.81-.31-.31-.67-.55-1.1-.74-.09-.23-.19-.47-.28-.71-.09-.23-.24-.45-.42-.64-.33-.56-.59-1.17-.78-1.8-.19-.64-.33-1.26-.42-1.87-.05-.38-.11-.78-.18-1.2-.07-.42-.15-.82-.25-1.2.05-.38.11-.75.18-1.13.07-.38.13-.75.18-1.13.28-.28.42-.61.42-.99s.09-.71.28-.99c.33-.38.65-.74.95-1.1.31-.35.6-.69.88-1.02.66-.66,1.34-1.21,2.05-1.66.71-.45,1.51-.76,2.4-.95.38-.09.74-.21,1.1-.35s.72-.16,1.1-.07c.42-.09.86-.22,1.31-.39.45-.16.86-.32,1.24-.46.05-.14.12-.35.21-.64.09-.28.12-.45.07-.49,0-.23-.01-.49-.04-.78-.02-.28-.04-.52-.04-.71-.19-.23-.37-.39-.53-.46-.17-.07-.34-.11-.53-.11-.47.05-.95.12-1.45.21-.49.09-.98.21-1.45.35-.47.19-.98.32-1.52.39-.54.07-1.07.13-1.59.18-.09,0-.18-.05-.25-.14-.07-.09-.15-.16-.25-.21-.14-.94-.25-1.64-.32-2.08-.07-.45-.11-.87-.11-1.27s.02-.95.07-1.66l-.57-.64c-.05-.23-.05-.45,0-.64.05-.19.09-.38.14-.57.14-.14.28-.28.42-.42s.31-.28.49-.42c.19-.38.21-.75.07-1.13-.05-.09-.11-.22-.18-.39-.07-.16-.08-.34-.03-.53.09-.05.18-.11.25-.18.07-.07.15-.11.25-.11.28,0,.55.01.81.03.26.02.55.06.88.11.14-.05.33-.08.57-.11.23-.02.45-.06.64-.11.52-.14,1.01-.27,1.48-.39.47-.12.94-.18,1.41-.18.23-.05.48-.12.74-.21.26-.09.51-.19.74-.28.47-.33.71-.82.71-1.48-.05-.19-.06-.38-.04-.56.02-.19-.01-.38-.11-.57-.09-.09-.13-.28-.11-.56.02-.28-.01-.45-.11-.49-.09-.05-.27-.08-.53-.11-.26-.02-.44-.03-.53-.03-.47.05-.98.14-1.52.28-.54.14-1.05.19-1.52.14-.42-.05-.87-.06-1.34-.03-.47.02-.94.03-1.41.03-.09,0-.22.02-.39.07-.17.05-.29.02-.39-.07-.19-.23-.25-.49-.18-.78.07-.28-.01-.49-.25-.64.09-.23.18-.48.25-.74.07-.26.15-.48.25-.67-.28-1.22-.57-2.5-.85-3.82.05-.09.09-.21.14-.35.05-.14.09-.28.14-.42.52-.66,1.31-1.12,2.37-1.38,1.06-.26,1.94-.58,2.65-.95v-.56c.09-.05.19-.09.28-.14.09-.05.19-.09.28-.14.28-.28.42-.54.42-.78-.05-.47-.15-.93-.32-1.38-.17-.45-.37-.93-.6-1.45-.05-.05-.02-.12.07-.21s.16-.21.21-.35c.09-.38.16-.64.21-.78.14-.19.28-.28.42-.28.38-.09.74-.19,1.1-.28.35-.09.74-.16,1.17-.21.33-.05.65-.14.95-.28.31-.14.65-.21,1.02-.21.24,0,.49-.09.78-.28.28-.19.55-.34.81-.46.26-.12.53-.27.81-.46.52-.05,1.02-.08,1.52-.11.49-.02.98.13,1.45.46.09.33.2.66.32.99.12.33.25.66.39.99.09.33.18.66.25.99.07.33.15.64.25.92.19.38.45.57.78.57.23.05.47.07.71.07h.71c.71-.09,1.3-.18,1.77-.25.47-.07,1.04-.25,1.7-.53.19-.09.38-.14.56-.14s.38-.02.57-.07c.52,0,.91.05,1.17.14.26.09.48.47.67,1.13.19.66.36,1.34.53,2.05.16.71.27,1.41.32,2.12.05.19.06.38.04.57-.02.19-.04.38-.04.56-.05.19-.07.38-.07.57s-.02.4-.07.64c-.09.05-.21.11-.35.18-.14.07-.26.13-.35.18-.38.05-.73.07-1.06.07s-.68.05-1.06.14c-.09.05-.2.07-.32.07s-.22.02-.32.07c-.47.33-.97.54-1.48.64-.52.09-1.04.21-1.55.35-.09,0-.14.02-.14.07-.33.14-.49.38-.49.71-.05.24-.05.45,0,.64,0,.47.01.94.04,1.41.02.47.01.94-.04,1.41-.05.19-.06.39-.04.6.02.21.04.44.04.67.09.38.2.67.32.88.12.21.43.39.95.53.47.05.95.12,1.45.21.49.09.93.28,1.31.56.33.05.67.13,1.02.25.35.12.69.18,1.02.18.09-.05.31-.02.64.07.52.09.82.4.92.92.05.38.08.79.11,1.24.02.45.06.86.11,1.24l.28,2.47c.05.14.06.29.04.46-.02.17-.04.29-.04.39,0,.14-.07.29-.21.46-.14.17-.26.25-.35.25-.14.05-.26.08-.35.11-.09.02-.19.04-.28.04-1.27,0-2.47.21-3.6.64-.33.05-.68.11-1.06.18-.38.07-.75.15-1.13.25-.47.14-.71.4-.71.78-.05.99-.19,1.77-.42,2.33-.24.56-.35.97-.35,1.2.09.09.18.29.25.6.07.31.15.48.25.53.23.14.45.33.64.57.19.24.45.42.78.56.47.24.76.44.88.6.12.17.26.31.42.42.16.12.55.25,1.17.39.14.14.27.31.39.49.12.19.27.35.46.49.14.14.31.27.49.39.19.12.38.27.57.46.24.19.47.33.71.42.23.09.47.21.71.35.47.28.75.54.85.78.09.24.09.64,0,1.2ZM21.99,53.61c.09-.66-.05-1.22-.42-1.7-.61-.38-1.11-.67-1.48-.88-.38-.21-.82-.27-1.34-.18-1.04.14-1.88.64-2.54,1.48-.19.33-.32.79-.39,1.38-.07.59-.11,1.07-.11,1.45.23.47.42.8.57.99.14.19.38.47.71.85.24.14.59.29,1.06.46.47.16.87.32,1.2.46.47-.09.92-.27,1.34-.53s.73-.6.92-1.02c.19-.47.31-.93.35-1.38.05-.45.09-.91.14-1.38Z"/>
  <path class="cls-1" d="M78.37,24.29c.05.24.01.47-.11.71-.12.24-.2.47-.25.71-.09.38-.14.73-.14,1.06,0,.19-.01.37-.03.53-.02.17-.11.32-.25.46-.42.56-.59,1.23-.49,1.98,0,.8-.17,1.46-.49,1.98-.09.33-.28.56-.57.71-.24.24-.42.31-.57.21-.38-.09-.78-.06-1.2.11s-.82.25-1.2.25-.74.05-1.1.14c-.35.09-.72.19-1.1.28-.24.05-.47.08-.71.11-.24.02-.49.06-.78.11-.19.19-.33.38-.42.57-.09.19-.19.33-.28.42-.19.14-.4.25-.64.32-.24.07-.45.2-.64.39-.42,1.18-.86,2.33-1.31,3.46-.45,1.13-.93,2.26-1.45,3.39-.09.24-.18.46-.25.67s-.18.41-.32.6c-.09.19-.21.38-.35.57-.14.19-.26.35-.35.49v.78c0,.28-.17.38-.49.28-.19,0-.33-.05-.42-.14-.09-.09-.21-.19-.35-.28-.14-.09-.28-.19-.42-.28l-1.91-.14c-.05-.09-.15-.19-.32-.28-.17-.09-.34-.16-.53-.21-.09-.05-.19-.11-.28-.18-.09-.07-.19-.11-.28-.11-.75-.09-1.48-.29-2.19-.6-.71-.3-1.39-.69-2.05-1.17-.05-.09-.11-.21-.18-.35-.07-.14-.13-.26-.18-.35.19-.38.36-.72.53-1.02.16-.31.25-.62.25-.95.05-.61.26-1.27.64-1.98.42-.85.64-1.79.64-2.83,0-.28-.02-.49-.07-.64,0-.19-.14-.35-.42-.49-.19-.05-.4-.08-.64-.11-.24-.02-.45-.06-.64-.11-.24-.09-.45-.2-.64-.32-.19-.12-.4-.2-.64-.25-.05-.09-.14-.14-.28-.14-.19,0-.39.02-.6.07-.21.05-.41.09-.6.14-.28-.09-.54-.2-.78-.32-.24-.12-.47-.27-.71-.46-.05-.09-.14-.21-.28-.35-.09-.42-.19-.84-.28-1.24-.09-.4-.12-.81-.07-1.24,0-.28.02-.58.07-.88.05-.3.05-.6,0-.88,0-.33.01-.64.04-.92.02-.28.06-.56.11-.85.09-.66.22-1.31.39-1.94.16-.64.25-1.28.25-1.94,0-.09.05-.22.14-.39.09-.16.16-.29.21-.39.28-.09.57-.2.85-.32.28-.12.52-.2.71-.25.33,0,.6.07.81.21.21.14.46.26.74.35.52-.05,1.07-.11,1.66-.18.59-.07,1.17-.03,1.73.11.19-.09.35-.18.49-.25.14-.07.28-.13.42-.18.09,0,.16.01.21.04.05.02.09.03.14.03.38.19.73.12,1.06-.21s.59-.71.78-1.13c.09-.23.18-.48.25-.74.07-.26.15-.51.25-.74.09-.38.19-.68.28-.92.33-.38.57-.82.71-1.34.23-.52.38-1.04.42-1.55.14-.14.26-.19.35-.14.09.05.19.07.28.07.52.14,1.04.14,1.55,0,.38-.19.75-.31,1.13-.35.38-.05.78-.07,1.2-.07.28,0,.58-.01.88-.03.31-.02.58-.13.81-.32.66.42,1.25.75,1.77.99.33.38.49.75.49,1.13v.42c0,.14.02.31.07.49.24.57.34,1.12.32,1.66-.02.54-.13,1.1-.32,1.66,0,.19-.02.38-.07.56.05.19.08.38.11.57.02.19.06.4.11.64.09.19.14.37.14.53s.05.29.14.39c.23.24.45.32.64.25.19-.07.45-.06.78.04.52.28,1.1.46,1.73.53.64.07,1.26.2,1.87.39.24-.05.42-.08.57-.11.14-.02.31-.06.49-.11.23.19.47.37.71.53.24.16.47.36.71.6ZM95.33,49.8c.05.14.05.26,0,.35-.05.09-.07.19-.07.28-.09.19-.17.34-.21.46-.05.12-.12.27-.21.46.09.33.16.65.21.95.05.31.12.65.21,1.02-.14.28-.31.53-.49.74-.19.21-.28.51-.28.88-.05.19-.09.37-.14.53-.05.17-.09.37-.14.6-.14.42-.4.87-.78,1.34-.28.33-.61.8-.99,1.41-.24.09-.49.21-.78.35-.28.14-.61.28-.99.42-.19-.09-.37-.18-.53-.25-.17-.07-.34-.13-.53-.18-.09-.19-.17-.31-.21-.35-.47-.42-.97-.78-1.48-1.06-.47-.38-.9-.73-1.27-1.06-.28-.09-.54-.16-.78-.21-.24-.05-.47-.02-.71.07-.14.14-.21.24-.21.28-.19,1.41-.64,2.78-1.34,4.1-.19.33-.31.68-.35,1.06-.14.61-.42,1.15-.85,1.63-.05.14-.13.29-.25.46-.12.16-.22.32-.32.46-.05.19-.12.36-.21.53-.09.16-.19.34-.28.53-.33.42-.67.86-1.02,1.31-.35.45-.86.74-1.52.88-.8.09-1.4.15-1.8.18-.4.02-.78,0-1.13-.07-.35-.07-.88-.18-1.59-.32-.42.05-.92.12-1.48.21-.24-.09-.47-.16-.71-.21-.24-.05-.47-.09-.71-.14-.38-.14-.72-.27-1.02-.39-.31-.12-.58-.32-.81-.6-.09-.14-.31-.26-.64-.35-.33-.09-.63-.25-.88-.46-.26-.21-.53-.41-.81-.6-.09-.24-.22-.49-.39-.78-.17-.28-.29-.54-.39-.78-.61-1.13-1.13-2.27-1.55-3.43-.42-1.15-.75-2.37-.99-3.64-.09-.57-.13-1.13-.11-1.7.02-.56.06-1.11.11-1.62.09-.14.2-.31.32-.49.12-.19.22-.38.32-.57.09-.28.19-.58.28-.88.09-.31.16-.62.21-.95.14-.8.45-1.51.92-2.12.33-.47.58-.82.74-1.06.16-.23.39-.49.67-.78.28-.28.71-.68,1.27-1.2.09-.14.28-.35.57-.64.61-.85,1.44-1.29,2.47-1.34.14,0,.23-.05.28-.14.09-.09.22-.19.39-.28.16-.09.32-.21.46-.35.42-.09.92-.05,1.48.14.57.19,1.04.24,1.41.14.33-.09.53-.39.6-.88.07-.49.13-.91.18-1.24-.05-.19-.08-.36-.11-.53-.02-.16-.06-.34-.11-.53,0-.19.05-.33.14-.42.38-.61.57-1.25.57-1.91,0-.47.16-.8.49-.99.14-.09.28-.11.42-.03.14.07.31.11.49.11h.35c.47-.09.93-.2,1.38-.32.45-.12.88-.2,1.31-.25,1.08-.14,2.12-.35,3.11-.64.09-.05.2-.05.32,0,.12.05.22.09.32.14.33.66.52,1.13.56,1.41.05.28.07.73.07,1.34,0,.47.02.95.07,1.45.05.49.16.98.35,1.45.05.19.07.38.07.56s.02.4.07.64c0,.19.01.42.03.71.02.28.06.54.11.78l-.21.21c0,.14.07.24.21.28v-.07c.14.24.24.35.28.35.85.33,1.67.7,2.47,1.09.8.4,1.63.74,2.47,1.02.05.05.11.07.18.07s.13.02.18.07c.23.19.48.39.74.6.26.21.51.44.74.67.09.19.22.31.39.35.16.05.32.12.46.21.52.33.82.82.92,1.48ZM76.75,53.19c-.14-.42-.38-.66-.71-.71-.28-.09-.53-.21-.74-.35-.21-.14-.48-.23-.81-.28-.47-.09-.94-.12-1.41-.07-.47.05-.87.24-1.2.56-.24.24-.46.6-.67,1.1-.21.49-.41.86-.6,1.09-.05.09-.08.35-.11.78-.02.42-.04.68-.04.78.24.57.38.97.42,1.2.05.24.19.42.42.56.28.14.65.38,1.1.71.45.33.84.47,1.17.42.19-.05.42-.14.71-.28.28-.14.52-.23.71-.28.47-.24.86-.58,1.17-1.02.31-.45.41-.88.32-1.31.24-.38.33-.85.28-1.41-.05-.57-.05-1.06,0-1.48ZM99.86,31.21c-.05.24-.11.45-.18.64-.07.19-.13.4-.18.64,0,.19-.05.38-.14.57-.09.19-.17.35-.21.49-.28.19-.58.35-.88.49-.31.14-.55.38-.74.71-.05.19-.15.35-.32.49-.17.14-.29.26-.39.35-.42.33-.79.72-1.1,1.17-.31.45-.58.93-.81,1.45-.05-.09-.13-.15-.25-.18-.12-.02-.22-.06-.32-.11-.19-.14-.35-.29-.49-.46-.14-.16-.33-.29-.57-.39-.99-.47-1.86-1.15-2.61-2.05-.28-.09-.53-.19-.74-.28-.21-.09-.41-.16-.6-.21-.09-.05-.2-.09-.32-.14-.12-.05-.2-.12-.25-.21-.38-.57-.85-.99-1.41-1.27-.57-.28-1.04-.68-1.41-1.2-.14-.19-.29-.33-.46-.42-.17-.09-.32-.21-.46-.35-.38-.19-.71-.54-.99-1.06v-1.98c.19-.23.36-.51.53-.81.16-.31.36-.62.6-.95.33-.19.66-.4.99-.64.28-.23.51-.53.67-.88.16-.35.46-.62.88-.81.05.05.19.07.42.07.52.42,1.08.64,1.7.64.14,0,.29.05.46.14.16.09.34.19.53.28.19.19.42.35.71.49.23.14.49.26.78.35.28.09.52.19.71.28.19.09.38.21.56.35.19.14.38.28.57.42.19.19.38.36.57.53.19.17.38.34.57.53.14.05.31.09.49.14.19.05.38.09.57.14.19.24.38.47.56.71.19.24.38.47.57.71.42.28.86.52,1.31.71.45.19.81.49,1.1.92Z"/>
  <path class="cls-1" d="M159.63,40.12c0,.19-.05.34-.14.46-.09.12-.19.25-.28.39-.24.52-.31,1.06-.21,1.63.05.09-.09.32-.42.67-.33.35-.59.6-.78.74-.19.09-.35.21-.49.35s-.31.28-.49.42c-.19-.14-.4-.27-.64-.39-.24-.12-.49-.25-.78-.39h-2.12c-.94,0-1.72.4-2.33,1.2.05.19.07.37.07.53v.6c-.09.19-.19.37-.28.53-.09.17-.19.37-.28.6.05.19.09.39.14.6.05.21.09.44.14.67-.24,1.04-.46,2.07-.67,3.11-.21,1.04-.58,2.1-1.1,3.18-.33.56-.73,1.18-1.2,1.84-.47.66-.82,1.41-1.06,2.26-.33.19-.65.4-.95.64-.31.24-.55.54-.74.92-.56.33-1.14.64-1.73.92-.59.28-1.1.68-1.52,1.2l-2.9.49c-.19.09-.38.19-.56.28-.19.09-.33.19-.42.28-.47.19-.94.22-1.41.11-.47-.12-.92-.13-1.34-.03-.19,0-.37-.01-.53-.04-.17-.02-.29-.01-.39.04-.56.19-1.13.27-1.7.25-.57-.02-1.13-.13-1.7-.32-.09,0-.32-.14-.67-.42s-.65-.52-.88-.71c-.42-.09-.84-.22-1.24-.39-.4-.16-.84-.27-1.31-.32-.75-.14-1.46-.38-2.12-.71-.66-.33-1.32-.71-1.98-1.13-.09-.14-.18-.28-.25-.42-.07-.14-.15-.28-.25-.42v-.99c-.38-.42-.65-.89-.81-1.41-.17-.52-.44-.94-.81-1.27-.56-2.21-.85-4.36-.85-6.43,0-.56-.07-1.13-.21-1.7-.33-1.13-.49-2.3-.49-3.5s.02-2.39.07-3.57c0-.33-.14-.61-.42-.85-.05,0-.34.02-.88.07-.54.05-.95.12-1.24.21-.42.05-.84.01-1.24-.11-.4-.12-.72-.36-.95-.74-.24-.28-.4-.52-.49-.71-.05-.19-.35-.33-.92-.42-.57-.09-.9-.09-.99,0-.47,0-.93.06-1.38.18-.45.12-.86.25-1.24.39-.56-.05-.97-.26-1.2-.64-.09-.19-.16-.34-.21-.46s-.12-.22-.21-.32c.09-1.41.14-2.51.14-3.28s.03-1.61.11-2.51c.07-.89.2-2.21.39-3.96.71-.38,1.39-.42,2.05-.14.23,0,.42-.07.57-.21s.31-.26.49-.35c.05,0,.08-.01.11-.04.02-.02.06-.03.11-.03.28.05.57.07.85.07s.56.05.85.14c.33-.19.64-.31.92-.35.14-.09.28-.18.42-.25.14-.07.28-.13.42-.18.23,0,.42.02.56.07.42.24.88.35,1.38.35s.98.05,1.45.14c.8-.05,1.55.01,2.26.18s1.44.29,2.19.39c.19.19.49.38.92.56.42.19.73.26.92.21.09-.09.22-.16.39-.21.16-.05.29-.09.39-.14.28,0,.53.07.74.21.21.14.43.26.67.35.19.14.4.25.64.32.23.07.47.15.71.25.23.24.46.48.67.74s.44.51.67.74c-.05.52-.03,1.06.03,1.62.07.57.11,1.11.11,1.63s.01,1.05.04,1.59c.02.54.08,1.07.18,1.59-.05.14-.08.31-.11.49-.02.19-.06.38-.11.57-.42,1.04-.28,2.03.42,2.97v.14c-.28.33-.47.64-.56.92,0,.19.01.36.03.53.02.16.04.36.04.6-.14.19-.27.38-.39.56-.12.19-.27.4-.46.64-.05.38-.02.75.07,1.13.09.38.07.75-.07,1.13.19.47.38.97.57,1.48.19.52.38,1.04.56,1.55.14.14.29.28.46.42.16.14.32.31.46.49.52,0,.98-.01,1.38-.04.4-.02.81-.03,1.24-.03.09.05.22.09.39.14.16.05.32.12.46.21.61.38,1.34.49,2.19.35.19-.19.4-.35.64-.49.23-.14.45-.31.64-.49l1.2-.71c.24-.38.46-.73.67-1.06.21-.33.41-.66.6-.99.33-.52.58-1.05.74-1.59.16-.54.27-1.07.32-1.59.23-1.22.66-2.43,1.27-3.6-.09-.23-.2-.46-.32-.67-.12-.21-.25-.41-.39-.6l-.07-2.12c.05-.09.07-.16.07-.21s.02-.09.07-.14c.23-.28.39-.59.46-.92.07-.33.13-.66.18-.99.09-.52.23-1,.42-1.45.19-.45.38-.91.57-1.38.23-.09.48-.19.74-.28.26-.09.53-.16.81-.21.66.19,1.31.39,1.94.6s1.26.41,1.87.6l.92.92c.47.05.91.11,1.31.18.4.07.84.08,1.31.04.66,0,1.1.05,1.31.14.21.09.69.31,1.45.64.56.09,1.13.11,1.7.04.57-.07,1.11-.18,1.63-.32.33.19.49.4.49.64s.02.47.07.71c.09.19.18.37.25.53.07.16.13.36.18.6-.19.85-.28,1.41-.28,1.7s.12.87.35,1.77ZM164.44,19.84v.71c0,.28-.05.57-.14.85-.09.28-.12.57-.07.85.05.28.07.61.07.99-.38.8-.71,1.63-.99,2.47-.33.38-.65.79-.95,1.24-.31.45-.65.88-1.02,1.31-.85,1.13-1.93,1.84-3.25,2.12-.19.05-.38.11-.56.18-.19.07-.4.15-.64.25-1.04.38-2,.49-2.9.35-.38-.09-.75-.11-1.13-.03-.38.07-.78.08-1.2.03-.47-.09-.94-.21-1.41-.35-.47-.14-.92-.33-1.34-.57-.61-.71-1.08-1.25-1.41-1.62-.33-.38-.64-.79-.92-1.24-.28-.45-.73-1.12-1.34-2.01-.05-.61-.08-1.25-.11-1.91-.02-.66.06-1.29.25-1.91.09-.23.13-.47.11-.71-.02-.23-.04-.45-.04-.64-.09-.71-.05-1.4.14-2.08.19-.68.38-1.35.56-2.01.09-.23.2-.46.32-.67.12-.21.25-.43.39-.67.14-.19.29-.39.46-.6s.32-.43.46-.67c.8-.52,1.54-1.01,2.23-1.48s1.47-.75,2.37-.85c.61-.09,1.21-.14,1.8-.14s1.19.12,1.8.35c.42.14.85.18,1.27.11s.82.01,1.2.25c.38.19.74.39,1.09.6s.72.44,1.1.67c.14.14.35.31.64.49.56.99,1.15,1.98,1.77,2.97.61.99,1.08,2.12,1.41,3.39ZM158.5,19.63c-.05-.09-.19-.35-.42-.78-.24-.42-.4-.73-.49-.92-.14-.09-.35-.25-.64-.46-.28-.21-.47-.32-.56-.32-.8.05-1.59.2-2.37.46-.78.26-1.5.65-2.16,1.17-.8.57-1.15,1.32-1.06,2.26.05.56.15,1.1.32,1.59.16.49.46.93.88,1.31.19.19.35.38.49.56.14.19.31.35.49.49.09.09.28.19.57.28.09-.05.22-.08.39-.11.16-.02.29-.06.39-.11.47-.09.85-.19,1.13-.28l2.19-2.19c.23-.52.43-1.01.6-1.48.16-.47.25-.97.25-1.48Z"/>
  <path class="cls-1" d="M204.15,22.52c.05.28.03.51-.03.67-.07.16-.15.34-.25.53-.19.38-.28.8-.28,1.27s-.16.8-.49.99c0,.28-.14.61-.42.99-.19.28-.35.59-.49.92-.14.33-.26.68-.35,1.06-.75.47-1.26.75-1.52.85-.26.09-.79.19-1.59.28-.14-.05-.28-.11-.42-.18-.14-.07-.31-.13-.49-.18-.05,0-.12.01-.21.03-.09.02-.21.06-.35.11-.05.05-.13.09-.25.14-.12.05-.22.09-.32.14-.33-.09-.64-.18-.92-.25-.28-.07-.57-.13-.85-.18-.61-.09-1.08.12-1.41.64v.74c0,.26-.02.51-.07.74-.05.24-.08.47-.11.71-.02.24-.03.47-.03.71-.05.19-.11.41-.18.67-.07.26-.11.53-.11.81,0,.24.01.48.04.74.02.26.06.53.11.81-.28.33-.55.66-.81.99-.26.33-.51.66-.74.99-.14.14-.21.28-.21.42-.14.94-.32,1.91-.53,2.9s-.41,1.96-.6,2.9c-.05.56-.31,1.08-.78,1.55-.19.14-.33.28-.42.42-.09.14-.26.26-.49.35-.24,0-.42-.08-.56-.25s-.33-.27-.56-.32c-.19-.09-.37-.11-.53-.04-.16.07-.34.13-.53.18-.89-.23-1.5-.36-1.8-.39-.31-.02-.86.08-1.66.32-.19-.05-.33-.16-.42-.35-.09-.19-.24-.33-.42-.42-.14-.09-.24-.23-.28-.42-.05-.19-.19-.31-.42-.35-.19.09-.35.21-.49.35s-.33.26-.56.35c-.14,0-.28.01-.42.04-.14.02-.28.03-.42.03-.09-.19-.19-.36-.28-.53-.09-.16-.21-.34-.35-.53.05-.24.07-.47.07-.71v-.85c.05-.47.12-.96.21-1.48.09-.52.26-1.01.49-1.48.09-.23.14-.59.14-1.06-.05-.38-.01-.74.11-1.09.12-.35.27-.67.46-.95-.19-.56-.22-1.11-.11-1.62.12-.52.22-1.04.32-1.55-.14-.38-.42-.57-.85-.57-.09,0-.2.01-.32.04-.12.02-.25.06-.39.11-.99.24-2,.28-3.04.14-.19-.05-.38-.06-.57-.03-.19.02-.35.03-.49.03h-1.41c-.14,0-.35-.05-.64-.14-.05-.14-.09-.26-.14-.35-.05-.09-.12-.19-.21-.28-.14-.66-.26-1.31-.35-1.94-.09-.64-.09-1.31,0-2.01v-.92c0-.14-.01-.28-.03-.42-.02-.14-.04-.28-.04-.42.05-.19.08-.34.11-.46.02-.12.06-.27.11-.46-.05-.14-.11-.31-.18-.49-.07-.19-.15-.38-.25-.57.05-.09.09-.22.14-.39.05-.16.09-.29.14-.39,0-.05-.01-.09-.03-.14-.02-.05-.04-.09-.04-.14-.28-.56-.35-.96-.21-1.2.14-.24.4-.52.78-.85.09-.09.28-.19.56-.28.61-.33,1.2-.8,1.77-1.41.38,0,.78.05,1.2.14.42.09.82.14,1.2.14.42.05.84.08,1.24.11.4.02.81.08,1.24.18.38.09.71.11.99.03.28-.07.56-.2.85-.39.09-.09.19-.18.28-.25.09-.07.19-.13.28-.18.52-.42.78-.94.78-1.55.05-.19.06-.38.03-.56-.02-.19-.03-.38-.03-.57,0-.89.09-1.72.28-2.47.09-.05.19-.09.28-.14.09-.05.16-.09.21-.14.33-.14.65-.29.95-.46.31-.16.55-.36.74-.6.09-.14.13-.25.11-.32-.02-.07-.15-.15-.39-.25-.05-.05-.07-.09-.07-.14v-.21c.23-.14.45-.21.64-.21.52-.05,1.01-.05,1.48,0,.47.05.89.21,1.27.49.52.28,1.08.38,1.7.28.42,0,.82-.02,1.2-.07.38-.05.73-.07,1.06-.07.47-.09.8.07.99.49,0,.19-.01.39-.03.6-.02.21-.03.44-.03.67.19.38.35.75.49,1.13.14.38.19.8.14,1.27-.05.09-.09.21-.14.35-.05.14-.09.28-.14.42.14.52.4.8.78.85.52,0,1.06.01,1.62.03.57.02,1.13.03,1.7.03.85-.05,1.65.09,2.4.42.09.05.18.06.25.04s.13-.01.18.03c.19-.05.38-.11.56-.18.19-.07.4-.13.64-.18.28.19.58.36.88.53.31.16.62.36.95.6.05.24.07.46.07.67s.02.44.07.67c.09.19.16.39.21.6s.09.39.14.53ZM220.4,37.86c0,.09-.01.2-.03.32-.02.12-.03.22-.03.32.14.42.2.84.18,1.24-.02.4-.08.81-.18,1.24-.05.28-.11.56-.18.85s-.15.61-.25.99c-.19.24-.35.51-.49.81-.14.31-.33.65-.57,1.02-.19.24-.31.52-.35.85-.05.33-.12.66-.21.99-.19.33-.38.66-.57.99-.19.33-.4.68-.64,1.06-.19.05-.34.12-.46.21-.12.09-.27.19-.46.28-.05,0-.12.01-.21.04-.09.02-.19.01-.28-.04-.24-.09-.49-.13-.78-.11-.28.02-.54.06-.78.11-.61.05-1.04.07-1.27.07s-.71-.09-1.41-.28c-.19.09-.41.17-.67.21-.26.05-.51.12-.74.21-.61.09-1.06-.09-1.34-.56-.09-.19-.19-.35-.28-.49-.09-.14-.19-.31-.28-.49.19-.23.36-.46.53-.67.16-.21.29-.43.39-.67.09-.28.16-.52.21-.71-.05-.24-.09-.47-.14-.71-.05-.23-.09-.45-.14-.64-.33-.47-.71-.71-1.13-.71-.42-.14-.8-.14-1.13,0-.19.05-.4.09-.64.14-.24.05-.47.07-.71.07-.19.05-.39.06-.6.03-.21-.02-.44-.03-.67-.03-.19.19-.38.39-.56.6-.19.21-.33.39-.42.53-.47.19-.91.29-1.31.32-.4.02-.79.11-1.17.25-.47.19-.92.21-1.34.07s-.78-.38-1.06-.71c-.57-.61-1.18-1.11-1.84-1.48-.28-.38-.4-.75-.35-1.13.05-.38.09-.78.14-1.2.05-.42.19-.8.42-1.13.14-.24.21-.46.21-.67v-.67c.05-.57.08-1.12.11-1.66.02-.54.06-1.1.11-1.66,0-.09.02-.19.07-.28.05-.09.09-.19.14-.28.23-.05.46-.08.67-.11.21-.02.43-.06.67-.11.09-.19.22-.38.39-.56.16-.19.27-.35.32-.49.23,0,.42-.02.56-.07.14-.05.26-.05.35,0,.47.14.95.2,1.45.18.49-.02.98.01,1.45.11.71.14,1.24.2,1.59.18.35-.02.91-.13,1.66-.32.09.05.19.11.28.18.09.07.16.15.21.25.23.09.43.12.6.07s.34-.05.53,0c.19,0,.47.05.85.14.14-.09.29-.21.46-.35.16-.14.32-.23.46-.28.23.09.47.22.71.39s.45.29.64.39c.42-.05.87-.07,1.34-.07s.94-.02,1.41-.07c.75.14,1.51.33,2.26.56.38.09.74.21,1.09.35.35.14.67.33.95.56.33.19.64.39.92.6.28.21.59.44.92.67.28.28.42.61.42.99ZM216.79,57.71c-.05.24-.12.49-.21.78-.09.28-.21.57-.35.85-.14.56-.14,1.15,0,1.77.05.05.08.13.11.25.02.12.06.22.11.32-.28.33-.49.55-.64.67s-.54.36-1.2.74c-.09.19-.21.39-.35.6-.14.21-.26.44-.35.67-.33.05-.64.08-.92.11-.28.02-.57.06-.85.11-.19.05-.38.09-.57.14-.19.05-.35.09-.49.14h-.28c-.19,0-.38-.02-.57-.07-.19.05-.39.13-.6.25-.21.12-.46.25-.74.39-.38-.05-.75-.14-1.13-.28-.38-.14-.78-.26-1.2-.35-.71-.09-1.4-.03-2.08.18-.68.21-1.38.25-2.08.11-.28-.05-.57-.12-.85-.21-.28-.09-.59-.19-.92-.28-.09-.05-.22-.09-.39-.14-.17-.05-.29-.09-.39-.14-.24-.19-.49-.32-.78-.39-.28-.07-.59-.13-.92-.18-.28-.05-.55-.13-.81-.25-.26-.12-.53-.25-.81-.39-.09-.19-.19-.31-.28-.35,0-.09-.01-.2-.04-.32-.02-.12-.01-.22.04-.32.09-.52.15-1.01.18-1.48s-.06-.94-.25-1.41c-.05-.14-.06-.28-.03-.42.02-.14.03-.28.03-.42.09-.28.13-.56.11-.85-.02-.28.01-.57.11-.85.09-.33.12-.65.07-.95-.05-.31-.12-.6-.21-.88-.05-.19-.08-.4-.11-.64-.02-.23-.04-.45-.04-.64l.25-.25c.07-.07.13-.11.18-.11.33-.09.68-.16,1.06-.21.38-.05.73-.09,1.06-.14.33-.09.65-.23.95-.42.31-.19.65-.23,1.02-.14.38.05.72.15,1.02.32.31.16.62.29.95.39.38.14.74.26,1.09.35.35.09.69.19,1.02.28.09.05.18.07.25.07s.13.02.18.07c.38.33.78.55,1.2.67.42.12.85.29,1.27.53,1.08.05,2.11.02,3.07-.07.96-.09,1.9-.31,2.79-.64.23-.09.43-.14.6-.14s.34-.02.53-.07c.56-.05.96,0,1.2.14.23.14.45.54.64,1.2.09.38.16.75.21,1.13.05.38.09.78.14,1.2Z"/>
</svg>
